<svg width="24" height="24" viewBox="0 0 24 24" fill="none" xmlns="http://www.w3.org/2000/svg">
<path d="M12 6C15.48 6 18.6 7.92 20.4 10.8C18.6 13.68 15.48 15.6 12 15.6C8.52 15.6 5.4 13.68 3.6 10.8C5.4 7.92 8.52 6 12 6ZM12 8.4C10.08 8.4 8.52 9.96 8.52 11.88C8.52 13.8 10.08 15.36 12 15.36C13.92 15.36 15.48 13.8 15.48 11.88C15.48 9.96 13.92 8.4 12 8.4ZM12 13.44C11.04 13.44 10.32 12.72 10.32 11.76C10.32 10.8 11.04 10.08 12 10.08C12.96 10.08 13.68 10.8 13.68 11.76C13.68 12.72 12.96 13.44 12 13.44Z" fill="#666666"/>
</svg>