<svg width="24" height="24" viewBox="0 0 24 24" fill="none" xmlns="http://www.w3.org/2000/svg">
<path d="M12 6C15.48 6 18.6 7.92 20.4 10.8C19.32 12.72 17.52 14.28 15.24 15.24L14.04 13.32C15.48 12.6 16.56 11.4 17.16 10.08C16.08 8.88 14.28 8.04 12 8.04C10.92 8.04 9.96 8.28 9.12 8.64L7.68 7.2C9.12 6.48 10.56 6 12 6Z" fill="#666666"/>
<path d="M2.4 5.28L3.84 6.72C2.88 7.68 2.16 8.88 1.68 10.08C3.48 12.96 6.6 14.88 10.08 14.88C11.04 14.88 11.88 14.76 12.6 14.52L14.04 15.96C12.96 16.44 11.64 16.68 10.08 16.68C6 16.68 2.4 14.4 0 10.08C0.72 8.64 1.68 7.32 2.88 6.12L0.24 3.48L1.68 2.04L5.04 5.4L2.4 5.28Z" fill="#666666"/>
<path d="M9.12 12.24L10.56 10.8C10.32 10.56 10.08 10.2 10.08 9.84C10.08 9.12 10.68 8.52 11.4 8.52C11.76 8.52 12.12 8.64 12.36 8.88L13.8 7.44C13.08 6.96 12.12 6.72 11.04 6.72C8.76 6.72 6.96 8.52 6.96 10.8C6.96 11.4 7.08 12 7.32 12.48L9.12 12.24Z" fill="#666666"/>
</svg>