<svg xmlns="http://www.w3.org/2000/svg" viewBox="0 0 24 24" fill="none">
  <path d="M12 21.35l-1.45-1.32C5.4 15.36 2 12.28 2 8.5 2 5.42 4.42 3 7.5 3c1.74 0 3.41.81 4.5 2.09C13.09 3.81 14.76 3 16.5 3 19.58 3 22 5.42 22 8.5c0-1.74-.81-3.41-2.09-4.5l1.45-1.32C21.6 11.64 22 13.28 22 15c0 3.31-2.69 6-6 6-1.74 0-3.41-.81-4.5-2.09V15c0-.55-.45-1-1-1s-1 .45-1 1v3.5c0 1.1-.9 2-2 2h-2c-1.1 0-2-.9-2-2V9c0-.55-.45-1-1-1s-1 .45-1 1v2.5c0 1.1-.9 2-2 2H9c-1.1 0-2-.9-2-2V9c0-.55-.45-1-1-1s-1 .45-1 1v2.5c0 1.1-.9 2-2 2H6c-1.1 0-2-.9-2-2V9c0-.55-.45-1-1-1s-1 .45-1 1v2.5c0 1.1-.9 2-2 2H3c-1.1 0-2-.9-2-2V9c0-.55-.45-1-1-1s-1 .45-1 1v2.5c0 1.1-.9 2-2 2z" fill="#2D64F0"/>
</svg>
