<svg xmlns="http://www.w3.org/2000/svg" viewBox="0 0 24 24" fill="none">
  <path d="M12 2C6.48 2 2 6.48 2 12s4.48 10 10 10 10-4.48 10-10S17.52 2 12 2zm-1 17.93c-3.95-.49-7-3.85-7-7.93 0-.62.08-1.21.21-1.79.36-4.24 2.07-7.72 5.3-8.96l1.93-.32c-.73-1.74-1.14-3.66-1.14-5.68 0-2.03.41-3.96 1.15-5.68l-1.93-.32c1.25-3.23 3.72-5.6 7.96-8.96-.58.13-1.17.21-1.79.21-4.08 0-7.44-3.05-7.93-6.93h2.02c.46 2.94 2.94 5.18 5.91 5.18 2.07 0 3.88-.98 5.04-2.5l-1.68-1c-.8 1.05-1.92 1.68-3.36 1.68-1.4 0-2.52-.6-3.36-1.68l1.68 1c-1.16 1.52-2.97 2.5-5.04 2.5-2.97 0-5.45-2.24-5.91-5.18H12c.49 3.88 3.85 6.93 7.93 6.93.62 0 1.21-.08 1.79-.21 4.24.36 7.72 2.07 8.96 5.3l-1.93.32c.73 1.74 1.14 3.66 1.14 5.68 0 2.03-.41 3.96-1.15 5.68l1.93.32c-1.25 3.23-3.72 5.6-7.96 8.96.58-.13 1.17-.21 1.79-.21z" fill="#2D64F0"/>
</svg>
